{
    "accessors": [
        {
            "bufferView": 0,
            "byteOffset": 0,
            "componentType": 5126,
            "count": 33420,
            "max": [
                123.5374984741211,
                130.02366638183594,
                245.92288208007812
            ],
            "min": [
                -123.5374984741211,
                -162.53976440429688,
                36.298667907714844
            ],
            "name": "accessor_buffer_Brain.001_POSITION_0",
            "type": "VEC3"
        },
        {
            "bufferView": 1,
            "byteOffset": 0,
            "componentType": 5126,
            "count": 33420,
            "max": [
                0.9999685287475586,
                0.9989601969718933,
                0.9999769330024719
            ],
            "min": [
                -0.9999841451644897,
                -0.9997677803039551,
                -0.9996737837791443
            ],
            "name": "accessor_buffer_Brain.001_NORMAL_0",
            "type": "VEC3"
        },
        {
            "bufferView": 2,
            "byteOffset": 0,
            "componentType": 5126,
            "count": 33420,
            "max": [
                1.408331036567688,
                0.9969289998989552
            ],
            "min": [
                0.0,
                0.0
            ],
            "name": "accessor_buffer_Brain.001_TEXCOORD_0_0",
            "type": "VEC2"
        },
        {
            "bufferView": 3,
            "byteOffset": 0,
            "componentType": 5123,
            "count": 33420,
            "max": [
                33419
            ],
            "min": [
                0
            ],
            "name": "accessor_buffer_Brain.001_0",
            "type": "SCALAR"
        }
    ],
    "asset": {
        "copyright": "",
        "generator": "blendergltf v1.2.0",
        "version": "2.0"
    },
    "bufferViews": [
        {
            "buffer": 0,
            "byteLength": 401040,
            "byteOffset": 0,
            "byteStride": 12,
            "name": "bufferView_buffer_Brain.001_POSITION_0",
            "target": 34962
        },
        {
            "buffer": 0,
            "byteLength": 401040,
            "byteOffset": 401040,
            "byteStride": 12,
            "name": "bufferView_buffer_Brain.001_NORMAL_0",
            "target": 34962
        },
        {
            "buffer": 0,
            "byteLength": 267360,
            "byteOffset": 802080,
            "byteStride": 8,
            "name": "bufferView_buffer_Brain.001_TEXCOORD_0_0",
            "target": 34962
        },
        {
            "buffer": 0,
            "byteLength": 66844,
            "byteOffset": 1069440,
            "name": "bufferView_buffer_Brain.001_0",
            "target": 34963
        }
    ],
    "buffers": [
        {
            "byteLength": 1136284,
            "name": "buffer_braintransparent",
            "uri": "buffer_braintransparent.bin"
        }
    ],
    "materials": [
        {
            "alphaMode": "OPAQUE",
            "doubleSided": false,
            "emissiveFactor": [
                0.0,
                0.0,
                0.0
            ],
            "name": "Brain",
            "pbrMetallicRoughness": {
                "baseColorFactor": [
                    0.6916667222976685,
                    0.06956886500120163,
                    0.06956886500120163,
                    1.0
                ],
                "metallicFactor": 0.0,
                "roughnessFactor": 1.0
            }
        }
    ],
    "meshes": [
        {
            "name": "Brain.001",
            "primitives": [
                {
                    "attributes": {
                        "NORMAL": 1,
                        "POSITION": 0,
                        "TEXCOORD_0": 2
                    },
                    "indices": 3,
                    "material": 0,
                    "mode": 4
                }
            ]
        }
    ],
    "nodes": [
        {
            "mesh": 0,
            "name": "Brain.001",
            "rotation": [
                -0.7071068286895752,
                0.0,
                0.0,
                0.7071067094802856
            ],
            "scale": [
                0.0477120578289032,
                0.0477120578289032,
                0.0477120578289032
            ],
            "translation": [
                0.0,
                -6.402063846588135,
                0.0
            ]
        }
    ],
    "scene": 0,
    "scenes": [
        {
            "extras": {
                "background_color": [
                    0.05087608844041824,
                    0.05087608844041824,
                    0.05087608844041824
                ],
                "frames_per_second": 24
            },
            "name": "Scene",
            "nodes": [
                0
            ]
        }
    ]
}
