{
    "accessors": [
        {
            "bufferView": 2,
            "byteOffset": 0,
            "componentType": 5126,
            "count": 39377,
            "max": [
                0.994086503982544,
                0.9684160426259041
            ],
            "min": [
                0.009172581136226654,
                0.00927877426147461
            ],
            "name": "accessor_buffer_Untitled.004_TEXCOORD_0_0",
            "type": "VEC2"
        },
        {
            "bufferView": 0,
            "byteOffset": 0,
            "componentType": 5126,
            "count": 39377,
            "max": [
                0.5167595148086548,
                0.6378355026245117,
                0.624152421951294
            ],
            "min": [
                -0.5417121648788452,
                -0.6783868074417114,
                -0.499733567237854
            ],
            "name": "accessor_buffer_Untitled.004_POSITION_0",
            "type": "VEC3"
        },
        {
            "bufferView": 3,
            "byteOffset": 0,
            "componentType": 5126,
            "count": 39377,
            "max": [
                0.9783750772476196,
                1.0
            ],
            "min": [
                0.0,
                0.004537999629974365
            ],
            "name": "accessor_buffer_Untitled.004_TEXCOORD_1_0",
            "type": "VEC2"
        },
        {
            "bufferView": 1,
            "byteOffset": 0,
            "componentType": 5126,
            "count": 39377,
            "max": [
                0.9999940395355225,
                0.9998928904533386,
                0.9999977946281433
            ],
            "min": [
                -0.9999833106994629,
                -0.999995231628418,
                -0.9999688267707825
            ],
            "name": "accessor_buffer_Untitled.004_NORMAL_0",
            "type": "VEC3"
        },
        {
            "bufferView": 4,
            "byteOffset": 0,
            "componentType": 5123,
            "count": 226404,
            "max": [
                39376
            ],
            "min": [
                0
            ],
            "name": "accessor_buffer_Untitled.004_0",
            "type": "SCALAR"
        }
    ],
    "asset": {
        "copyright": "",
        "generator": "blendergltf v1.2.0",
        "version": "2.0"
    },
    "bufferViews": [
        {
            "buffer": 0,
            "byteLength": 472524,
            "byteOffset": 0,
            "byteStride": 12,
            "name": "bufferView_buffer_Untitled.004_POSITION_0",
            "target": 34962
        },
        {
            "buffer": 0,
            "byteLength": 472524,
            "byteOffset": 472524,
            "byteStride": 12,
            "name": "bufferView_buffer_Untitled.004_NORMAL_0",
            "target": 34962
        },
        {
            "buffer": 0,
            "byteLength": 315016,
            "byteOffset": 945048,
            "byteStride": 8,
            "name": "bufferView_buffer_Untitled.004_TEXCOORD_0_0",
            "target": 34962
        },
        {
            "buffer": 0,
            "byteLength": 315016,
            "byteOffset": 1260064,
            "byteStride": 8,
            "name": "bufferView_buffer_Untitled.004_TEXCOORD_1_0",
            "target": 34962
        },
        {
            "buffer": 0,
            "byteLength": 452812,
            "byteOffset": 1575080,
            "name": "bufferView_buffer_Untitled.004_0",
            "target": 34963
        }
    ],
    "buffers": [
        {
            "byteLength": 2027892,
            "name": "buffer_brain",
            "uri": "buffer_brain.bin"
        }
    ],
    "materials": [
        {
            "alphaMode": "OPAQUE",
            "doubleSided": false,
            "emissiveFactor": [
                0.0,
                0.0,
                0.0
            ],
            "name": "Brain",
            "pbrMetallicRoughness": {
                "baseColorFactor": [
                    0.27636367082595825,
                    0.06868442893028259,
                    0.07227253168821335,
                    1.0
                ],
                "metallicFactor": 0.0,
                "roughnessFactor": 1.0
            }
        }
    ],
    "meshes": [
        {
            "name": "Untitled.004",
            "primitives": [
                {
                    "attributes": {
                        "NORMAL": 3,
                        "POSITION": 1,
                        "TEXCOORD_0": 0,
                        "TEXCOORD_1": 2
                    },
                    "indices": 4,
                    "material": 0,
                    "mode": 4
                }
            ]
        }
    ],
    "nodes": [
        {
            "mesh": 0,
            "name": "Brain",
            "rotation": [
                -0.7117129564285278,
                0.0,
                0.0,
                0.7024704217910767
            ],
            "scale": [
                3.586127758026123,
                3.5861282348632812,
                3.5861282348632812
            ],
            "translation": [
                0.7677605152130127,
                1.2829437255859375,
                -0.8894329071044922
            ]
        }
    ],
    "scene": 0,
    "scenes": [
        {
            "extras": {
                "background_color": [
                    0.6151776313781738,
                    0.6151776313781738,
                    0.6151776313781738
                ],
                "frames_per_second": 24
            },
            "name": "Scene",
            "nodes": [
                0
            ]
        }
    ]
}
