{
    "accessors": [
        {
            "bufferView": 3,
            "byteOffset": 0,
            "componentType": 5123,
            "count": 112128,
            "max": [
                25656
            ],
            "min": [
                0
            ],
            "name": "accessor_buffer_Tube.1_0",
            "type": "SCALAR"
        },
        {
            "bufferView": 1,
            "byteOffset": 0,
            "componentType": 5126,
            "count": 25657,
            "max": [
                1.0,
                0.9999999403953552,
                1.0
            ],
            "min": [
                -1.0,
                -1.0,
                -1.0
            ],
            "name": "accessor_buffer_Tube.1_NORMAL_0",
            "type": "VEC3"
        },
        {
            "bufferView": 0,
            "byteOffset": 0,
            "componentType": 5126,
            "count": 25657,
            "max": [
                100.49400329589844,
                100.38971710205078,
                93.9301986694336
            ],
            "min": [
                -99.5965347290039,
                -112.65811920166016,
                0.039014577865600586
            ],
            "name": "accessor_buffer_Tube.1_POSITION_0",
            "type": "VEC3"
        },
        {
            "bufferView": 2,
            "byteOffset": 0,
            "componentType": 5126,
            "count": 25657,
            "max": [
                1.0,
                1.0
            ],
            "min": [
                0.0,
                0.0
            ],
            "name": "accessor_buffer_Tube.1_TEXCOORD_0_0",
            "type": "VEC2"
        }
    ],
    "asset": {
        "copyright": "",
        "generator": "blendergltf v1.2.0",
        "version": "2.0"
    },
    "bufferViews": [
        {
            "buffer": 0,
            "byteLength": 307884,
            "byteOffset": 0,
            "byteStride": 12,
            "name": "bufferView_buffer_Tube.1_POSITION_0",
            "target": 34962
        },
        {
            "buffer": 0,
            "byteLength": 307884,
            "byteOffset": 307884,
            "byteStride": 12,
            "name": "bufferView_buffer_Tube.1_NORMAL_0",
            "target": 34962
        },
        {
            "buffer": 0,
            "byteLength": 205256,
            "byteOffset": 615768,
            "byteStride": 8,
            "name": "bufferView_buffer_Tube.1_TEXCOORD_0_0",
            "target": 34962
        },
        {
            "buffer": 0,
            "byteLength": 224260,
            "byteOffset": 821024,
            "name": "bufferView_buffer_Tube.1_0",
            "target": 34963
        }
    ],
    "buffers": [
        {
            "byteLength": 1045284,
            "name": "buffer_hat",
            "uri": "buffer_hat.bin"
        }
    ],
    "materials": [
        {
            "alphaMode": "OPAQUE",
            "doubleSided": false,
            "emissiveFactor": [
                0.0,
                0.0,
                0.0
            ],
            "name": "Mat",
            "pbrMetallicRoughness": {
                "baseColorFactor": [
                    0.0056046233512461185,
                    0.0056046233512461185,
                    0.0056046233512461185,
                    1.0
                ],
                "metallicFactor": 0.0,
                "roughnessFactor": 1.0
            }
        },
        {
            "alphaMode": "OPAQUE",
            "doubleSided": false,
            "emissiveFactor": [
                0.0,
                0.0,
                0.0
            ],
            "name": "Material.001",
            "pbrMetallicRoughness": {
                "baseColorFactor": [
                    0.64000004529953,
                    0.30839383602142334,
                    0.011701801791787148,
                    1.0
                ],
                "metallicFactor": 0.0,
                "roughnessFactor": 1.0
            }
        }
    ],
    "meshes": [
        {
            "name": "Tube.1",
            "primitives": [
                {
                    "attributes": {
                        "NORMAL": 1,
                        "POSITION": 2,
                        "TEXCOORD_0": 3
                    },
                    "indices": 0,
                    "material": 0,
                    "mode": 4
                }
            ]
        }
    ],
    "nodes": [
        {
            "mesh": 0,
            "name": "Tube.1",
            "rotation": [
                -0.7071068286895752,
                0.0,
                0.0,
                0.7071067094802856
            ],
            "scale": [
                0.012563961558043957,
                0.012563961558043957,
                0.012563961558043957
            ],
            "translation": [
                0.0,
                0.0,
                0.0
            ]
        }
    ],
    "scene": 0,
    "scenes": [
        {
            "extras": {
                "background_color": [
                    0.05087608844041824,
                    0.05087608844041824,
                    0.05087608844041824
                ],
                "frames_per_second": 24
            },
            "name": "Scene",
            "nodes": [
                0
            ]
        }
    ]
}
