{
    "accessors": [
        {
            "bufferView": 2,
            "byteOffset": 0,
            "componentType": 5126,
            "count": 15433,
            "max": [
                1.0,
                1.0
            ],
            "min": [
                0.0,
                0.0
            ],
            "name": "accessor_buffer_Telescope_TEXCOORD_0_0",
            "type": "VEC2"
        },
        {
            "bufferView": 0,
            "byteOffset": 0,
            "componentType": 5126,
            "count": 15433,
            "max": [
                7.485799789428711,
                1.9002000093460083,
                0.9215999841690063
            ],
            "min": [
                -7.489299774169922,
                0.05689999833703041,
                -0.9215999841690063
            ],
            "name": "accessor_buffer_Telescope_POSITION_0",
            "type": "VEC3"
        },
        {
            "bufferView": 3,
            "byteOffset": 0,
            "componentType": 5123,
            "count": 91008,
            "max": [
                15432
            ],
            "min": [
                0
            ],
            "name": "accessor_buffer_Telescope_0",
            "type": "SCALAR"
        },
        {
            "bufferView": 1,
            "byteOffset": 0,
            "componentType": 5126,
            "count": 15433,
            "max": [
                1.0,
                1.0,
                1.0
            ],
            "min": [
                -1.0,
                -1.0,
                -1.0
            ],
            "name": "accessor_buffer_Telescope_NORMAL_0",
            "type": "VEC3"
        }
    ],
    "asset": {
        "copyright": "",
        "generator": "blendergltf v1.2.0",
        "version": "2.0"
    },
    "bufferViews": [
        {
            "buffer": 0,
            "byteLength": 185196,
            "byteOffset": 0,
            "byteStride": 12,
            "name": "bufferView_buffer_Telescope_POSITION_0",
            "target": 34962
        },
        {
            "buffer": 0,
            "byteLength": 185196,
            "byteOffset": 185196,
            "byteStride": 12,
            "name": "bufferView_buffer_Telescope_NORMAL_0",
            "target": 34962
        },
        {
            "buffer": 0,
            "byteLength": 123464,
            "byteOffset": 370392,
            "byteStride": 8,
            "name": "bufferView_buffer_Telescope_TEXCOORD_0_0",
            "target": 34962
        },
        {
            "buffer": 0,
            "byteLength": 182020,
            "byteOffset": 493856,
            "name": "bufferView_buffer_Telescope_0",
            "target": 34963
        }
    ],
    "buffers": [
        {
            "byteLength": 675876,
            "name": "buffer_telescope",
            "uri": "buffer_telescope.bin"
        }
    ],
    "materials": [
        {
            "alphaMode": "OPAQUE",
            "doubleSided": false,
            "emissiveFactor": [
                0.0,
                0.0,
                0.0
            ],
            "name": "Material.001",
            "pbrMetallicRoughness": {
                "baseColorFactor": [
                    0.34728148579597473,
                    0.4975890815258026,
                    0.64000004529953,
                    1.0
                ],
                "metallicFactor": 0.0,
                "roughnessFactor": 1.0
            }
        }
    ],
    "meshes": [
        {
            "name": "Telescope",
            "primitives": [
                {
                    "attributes": {
                        "NORMAL": 3,
                        "POSITION": 1,
                        "TEXCOORD_0": 0
                    },
                    "indices": 2,
                    "material": 0,
                    "mode": 4
                }
            ]
        }
    ],
    "nodes": [
        {
            "mesh": 0,
            "name": "Telescope",
            "rotation": [
                -0.7071068286895752,
                0.0,
                0.0,
                0.7071067094802856
            ],
            "scale": [
                1.0,
                1.0,
                1.0
            ],
            "translation": [
                0.0,
                0.0,
                0.0
            ]
        }
    ],
    "scene": 0,
    "scenes": [
        {
            "extras": {
                "background_color": [
                    0.05087608844041824,
                    0.05087608844041824,
                    0.05087608844041824
                ],
                "frames_per_second": 24
            },
            "name": "Scene",
            "nodes": [
                0
            ]
        }
    ]
}
